<svg xmlns="http://www.w3.org/2000/svg" viewBox="0 0 126 31" xmlns:v="https://vecta.io/nano"><path d="M33.075 11.07h12.743v2.364h-5.011v13.29h-2.755v-13.29h-4.988V11.07h.011zm12.199 4.32h2.355v2.187h.044c.078-.309.222-.608.433-.895s.467-.563.767-.795a4.09 4.09 0 0 1 1-.586c.367-.144.744-.221 1.122-.221l.611.022.344.044v2.408l-.544-.077a4.64 4.64 0 0 0-.544-.033 2.96 2.96 0 0 0-1.2.254c-.378.166-.7.42-.978.74-.278.331-.5.729-.667 1.215s-.244 1.038-.244 1.668v5.391h-2.511V15.39h.011zm18.221 11.335h-2.466v-1.58h-.044c-.311.574-.767 1.027-1.378 1.37s-1.233.519-1.866.519c-1.5 0-2.589-.365-3.255-1.105s-1-1.856-1-3.347V15.39h2.511v6.949c0 .994.189 1.701.578 2.11.378.409.922.619 1.611.619.533 0 .967-.077 1.322-.243s.644-.376.855-.652c.222-.265.378-.597.478-.972s.144-.784.144-1.226v-6.573h2.511v11.324zm4.277-3.635c.078.729.356 1.237.833 1.536.489.287 1.067.442 1.744.442a7.5 7.5 0 0 0 .8-.055c.3-.033.589-.11.844-.21.267-.099.478-.254.655-.453.167-.199.244-.453.233-.773s-.133-.586-.356-.784c-.222-.21-.5-.365-.844-.497-.344-.122-.733-.232-1.178-.32l-1.344-.287c-.467-.099-.922-.232-1.355-.376s-.822-.342-1.167-.597c-.344-.243-.622-.563-.822-.95-.211-.387-.311-.862-.311-1.436 0-.619.156-1.127.456-1.547s.689-.751 1.144-1.005c.467-.254.978-.431 1.544-.541.567-.099 1.111-.155 1.622-.155.589 0 1.155.066 1.689.188s1.022.32 1.455.608c.433.276.789.641 1.078 1.083s.467.983.544 1.613h-2.622c-.122-.597-.389-1.005-.822-1.204-.433-.21-.933-.309-1.489-.309a4.7 4.7 0 0 0-.633.044c-.244.033-.467.088-.689.166-.211.077-.389.199-.544.354-.144.155-.222.354-.222.608a.94.94 0 0 0 .322.74c.211.188.489.342.833.475.344.122.733.232 1.178.32l1.367.287c.456.099.9.232 1.344.376s.833.342 1.178.597.622.563.833.939.322.851.322 1.403c0 .674-.156 1.237-.467 1.712-.311.464-.711.851-1.2 1.138a5.66 5.66 0 0 1-1.644.641c-.6.133-1.2.199-1.789.199-.722 0-1.389-.077-2-.243s-1.144-.409-1.589-.729a3.62 3.62 0 0 1-1.055-1.226c-.256-.486-.389-1.072-.411-1.746h2.533v-.022zm8.288-7.7h1.9v-3.403h2.511v3.403h2.266v1.867H80.47v6.054l.033.685c.022.188.078.354.156.486s.2.232.367.298.378.099.667.099l.533-.011c.178-.011.356-.033.533-.077v1.933l-.811.088a6.53 6.53 0 0 1-.811.044c-.667 0-1.2-.066-1.6-.188s-.722-.309-.944-.552c-.233-.243-.378-.541-.467-.906-.078-.365-.133-.784-.144-1.248v-6.684h-1.9V15.39h-.022zm8.455 0h2.378v1.536h.044c.356-.663.844-1.127 1.478-1.414s1.311-.431 2.055-.431c.9 0 1.678.155 2.344.475.667.309 1.222.74 1.667 1.293s.767 1.193.989 1.922.333 1.514.333 2.342a8.1 8.1 0 0 1-.3 2.21 5.9 5.9 0 0 1-.9 1.9 4.41 4.41 0 0 1-1.533 1.315c-.622.331-1.344.497-2.189.497a6.17 6.17 0 0 1-1.1-.099 4.86 4.86 0 0 1-1.055-.32c-.333-.144-.655-.331-.933-.563-.289-.232-.522-.497-.722-.795h-.044v5.656h-2.511V15.39zm8.777 5.678c0-.508-.067-1.005-.2-1.491a4.01 4.01 0 0 0-.6-1.282 3.05 3.05 0 0 0-.989-.895c-.4-.221-.855-.342-1.367-.342-1.055 0-1.855.365-2.389 1.094s-.8 1.701-.8 2.917c0 .574.067 1.105.211 1.591s.344.906.633 1.259c.278.354.611.63 1 .829.389.21.844.309 1.355.309.578 0 1.055-.122 1.455-.354s.722-.541.978-.906c.256-.376.444-.795.556-1.27.1-.475.156-.961.156-1.458zm4.433-9.998h2.511v2.364h-2.511V11.07zm0 4.32h2.511v11.335h-2.511V15.39zm4.755-4.32h2.511v15.655h-2.511V11.07zm10.21 15.964c-.911 0-1.722-.155-2.433-.453s-1.311-.718-1.811-1.237a5.38 5.38 0 0 1-1.122-1.889c-.256-.729-.389-1.536-.389-2.408a7.17 7.17 0 0 1 .389-2.386 5.38 5.38 0 0 1 1.122-1.889c.489-.53 1.1-.939 1.811-1.237s1.522-.453 2.433-.453 1.722.155 2.433.453 1.311.718 1.811 1.237a5.38 5.38 0 0 1 1.122 1.889 7.17 7.17 0 0 1 .389 2.386c0 .873-.133 1.679-.389 2.408a5.38 5.38 0 0 1-1.122 1.889c-.489.53-1.1.939-1.811 1.237s-1.522.453-2.433.453zm0-1.978c.556 0 1.044-.122 1.455-.354a3.09 3.09 0 0 0 1.011-.917c.267-.376.456-.806.589-1.282.122-.475.189-.961.189-1.458 0-.486-.067-.961-.189-1.447a3.77 3.77 0 0 0-.589-1.282 3.06 3.06 0 0 0-1.011-.906c-.411-.232-.9-.354-1.455-.354s-1.044.122-1.455.354-.744.541-1.011.906c-.267.376-.456.795-.589 1.282-.122.486-.189.961-.189 1.447 0 .497.067.983.189 1.458a3.87 3.87 0 0 0 .589 1.282 3.09 3.09 0 0 0 1.011.917c.411.243.9.354 1.455.354zm6.488-9.667h1.9v-3.403h2.511v3.403h2.266v1.867h-2.266v6.054l.033.685c.022.188.078.354.156.486s.2.232.367.298.378.099.667.099l.533-.011c.178-.011.356-.033.533-.077v1.933l-.811.088a6.53 6.53 0 0 1-.811.044c-.667 0-1.2-.066-1.6-.188s-.722-.309-.944-.552c-.233-.243-.378-.541-.467-.906-.078-.365-.133-.784-.144-1.248v-6.684h-1.9V15.39h-.022z" fill="#191919"/><path fill="#00b67a" d="M30.142 11.07h-11.51L15.076.177 11.51 11.07 0 11.059l9.321 6.739L5.755 28.68l9.321-6.728 9.31 6.728-3.555-10.882 9.31-6.728z"/><path fill="#005128" d="M21.631 20.262l-.8-2.464-5.755 4.154z"/></svg>